<mxfile host="65bd71144e">
    <diagram id="pBK1guH4bu_zmOCUXD5L" name="Top Down">
        <mxGraphModel dx="699" dy="714" grid="1" gridSize="10" guides="1" tooltips="1" connect="1" arrows="1" fold="1" page="1" pageScale="1" pageWidth="827" pageHeight="1169" math="0" shadow="0">
            <root>
                <mxCell id="0"/>
                <mxCell id="1" parent="0"/>
                <mxCell id="7" style="edgeStyle=none;html=1;" parent="1" source="2" target="3" edge="1">
                    <mxGeometry relative="1" as="geometry"/>
                </mxCell>
                <mxCell id="2" value="Start" style="strokeWidth=2;html=1;shape=mxgraph.flowchart.terminator;whiteSpace=wrap;" parent="1" vertex="1">
                    <mxGeometry x="114" y="30" width="100" height="60" as="geometry"/>
                </mxCell>
                <mxCell id="8" style="edgeStyle=none;html=1;" parent="1" source="3" edge="1">
                    <mxGeometry relative="1" as="geometry">
                        <mxPoint x="164" y="260" as="targetPoint"/>
                    </mxGeometry>
                </mxCell>
                <mxCell id="3" value="Get number_inserted_&lt;br&gt;by_user" style="shape=parallelogram;html=1;strokeWidth=2;perimeter=parallelogramPerimeter;whiteSpace=wrap;rounded=1;arcSize=12;size=0.23;" parent="1" vertex="1">
                    <mxGeometry x="74" y="140" width="180" height="70" as="geometry"/>
                </mxCell>
                <mxCell id="5gCrOAnoiJWtTDMlkqBs-30" style="edgeStyle=none;html=1;" edge="1" parent="1" source="12" target="5gCrOAnoiJWtTDMlkqBs-28">
                    <mxGeometry relative="1" as="geometry"/>
                </mxCell>
                <mxCell id="5gCrOAnoiJWtTDMlkqBs-39" style="edgeStyle=none;html=1;" edge="1" parent="1" source="12" target="5gCrOAnoiJWtTDMlkqBs-38">
                    <mxGeometry relative="1" as="geometry"/>
                </mxCell>
                <mxCell id="12" value="If number_inserted_&lt;br&gt;by_user &amp;lt; 0 &lt;br&gt;&quot;number_inserted_by_user is negative&quot;&amp;nbsp;" style="rhombus;whiteSpace=wrap;html=1;" parent="1" vertex="1">
                    <mxGeometry x="70" y="260" width="188" height="150" as="geometry"/>
                </mxCell>
                <mxCell id="28" value="Stop" style="strokeWidth=2;html=1;shape=mxgraph.flowchart.terminator;whiteSpace=wrap;" parent="1" vertex="1">
                    <mxGeometry x="114" y="570" width="100" height="60" as="geometry"/>
                </mxCell>
                <mxCell id="5gCrOAnoiJWtTDMlkqBs-32" style="edgeStyle=none;html=1;entryX=0;entryY=0.5;entryDx=0;entryDy=0;" edge="1" parent="1" source="5gCrOAnoiJWtTDMlkqBs-28" target="5gCrOAnoiJWtTDMlkqBs-31">
                    <mxGeometry relative="1" as="geometry"/>
                </mxCell>
                <mxCell id="5gCrOAnoiJWtTDMlkqBs-41" style="edgeStyle=none;html=1;" edge="1" parent="1" source="5gCrOAnoiJWtTDMlkqBs-28" target="5gCrOAnoiJWtTDMlkqBs-40">
                    <mxGeometry relative="1" as="geometry"/>
                </mxCell>
                <mxCell id="5gCrOAnoiJWtTDMlkqBs-28" value="If number_inserted_&lt;br&gt;by_user &amp;gt; 0 &lt;br&gt;&quot;number_inserted_by_user is positive&quot;&amp;nbsp;" style="rhombus;whiteSpace=wrap;html=1;" vertex="1" parent="1">
                    <mxGeometry x="320" y="260" width="188" height="150" as="geometry"/>
                </mxCell>
                <mxCell id="5gCrOAnoiJWtTDMlkqBs-34" style="html=1;edgeStyle=orthogonalEdgeStyle;exitX=1;exitY=0.5;exitDx=0;exitDy=0;rounded=0;" edge="1" parent="1" source="5gCrOAnoiJWtTDMlkqBs-31">
                    <mxGeometry relative="1" as="geometry">
                        <mxPoint x="810" y="460" as="targetPoint"/>
                        <Array as="points">
                            <mxPoint x="810" y="335"/>
                        </Array>
                    </mxGeometry>
                </mxCell>
                <mxCell id="5gCrOAnoiJWtTDMlkqBs-43" style="edgeStyle=none;html=1;" edge="1" parent="1" source="5gCrOAnoiJWtTDMlkqBs-31" target="5gCrOAnoiJWtTDMlkqBs-42">
                    <mxGeometry relative="1" as="geometry"/>
                </mxCell>
                <mxCell id="5gCrOAnoiJWtTDMlkqBs-31" value="If number_inserted_&lt;br&gt;by_user = 0 &lt;br&gt;&quot;number_inserted_by_user &lt;br&gt;is 0&quot;&amp;nbsp;" style="rhombus;whiteSpace=wrap;html=1;" vertex="1" parent="1">
                    <mxGeometry x="540" y="260" width="188" height="150" as="geometry"/>
                </mxCell>
                <mxCell id="5gCrOAnoiJWtTDMlkqBs-35" value="No" style="text;html=1;align=center;verticalAlign=middle;resizable=0;points=[];autosize=1;strokeColor=none;fillColor=none;" vertex="1" parent="1">
                    <mxGeometry x="250" y="350" width="30" height="20" as="geometry"/>
                </mxCell>
                <mxCell id="5gCrOAnoiJWtTDMlkqBs-36" value="No" style="text;html=1;align=center;verticalAlign=middle;resizable=0;points=[];autosize=1;strokeColor=none;fillColor=none;" vertex="1" parent="1">
                    <mxGeometry x="500" y="350" width="30" height="20" as="geometry"/>
                </mxCell>
                <mxCell id="5gCrOAnoiJWtTDMlkqBs-37" value="No" style="text;html=1;align=center;verticalAlign=middle;resizable=0;points=[];autosize=1;strokeColor=none;fillColor=none;" vertex="1" parent="1">
                    <mxGeometry x="720" y="350" width="30" height="20" as="geometry"/>
                </mxCell>
                <mxCell id="5gCrOAnoiJWtTDMlkqBs-46" style="edgeStyle=orthogonalEdgeStyle;rounded=0;html=1;" edge="1" parent="1" source="5gCrOAnoiJWtTDMlkqBs-38" target="28">
                    <mxGeometry relative="1" as="geometry"/>
                </mxCell>
                <mxCell id="5gCrOAnoiJWtTDMlkqBs-38" value="print (&quot;number_&lt;br&gt;inserted_by_user is negative&quot;&quot;" style="shape=parallelogram;perimeter=parallelogramPerimeter;whiteSpace=wrap;html=1;fixedSize=1;" vertex="1" parent="1">
                    <mxGeometry x="86" y="460" width="156" height="70" as="geometry"/>
                </mxCell>
                <mxCell id="5gCrOAnoiJWtTDMlkqBs-47" style="edgeStyle=orthogonalEdgeStyle;rounded=0;html=1;" edge="1" parent="1" source="5gCrOAnoiJWtTDMlkqBs-40">
                    <mxGeometry relative="1" as="geometry">
                        <mxPoint x="414" y="600" as="targetPoint"/>
                    </mxGeometry>
                </mxCell>
                <mxCell id="5gCrOAnoiJWtTDMlkqBs-40" value="print (&quot;number_&lt;br&gt;inserted_by_user is positive&quot;&quot;" style="shape=parallelogram;perimeter=parallelogramPerimeter;whiteSpace=wrap;html=1;fixedSize=1;" vertex="1" parent="1">
                    <mxGeometry x="336" y="460" width="156" height="70" as="geometry"/>
                </mxCell>
                <mxCell id="5gCrOAnoiJWtTDMlkqBs-51" style="edgeStyle=elbowEdgeStyle;rounded=0;html=1;" edge="1" parent="1" source="5gCrOAnoiJWtTDMlkqBs-42">
                    <mxGeometry relative="1" as="geometry">
                        <mxPoint x="634" y="600" as="targetPoint"/>
                    </mxGeometry>
                </mxCell>
                <mxCell id="5gCrOAnoiJWtTDMlkqBs-42" value="print (&quot;number_&lt;br&gt;inserted_by_user is positive&quot;&quot;" style="shape=parallelogram;perimeter=parallelogramPerimeter;whiteSpace=wrap;html=1;fixedSize=1;" vertex="1" parent="1">
                    <mxGeometry x="556" y="460" width="156" height="70" as="geometry"/>
                </mxCell>
                <mxCell id="5gCrOAnoiJWtTDMlkqBs-49" style="edgeStyle=elbowEdgeStyle;rounded=0;html=1;" edge="1" parent="1" source="5gCrOAnoiJWtTDMlkqBs-44" target="28">
                    <mxGeometry relative="1" as="geometry">
                        <mxPoint x="806" y="599.9999999999998" as="targetPoint"/>
                        <Array as="points">
                            <mxPoint x="810" y="560"/>
                            <mxPoint x="820" y="560"/>
                            <mxPoint x="840" y="560"/>
                            <mxPoint x="806" y="590"/>
                        </Array>
                    </mxGeometry>
                </mxCell>
                <mxCell id="5gCrOAnoiJWtTDMlkqBs-44" value="print (&quot;number_&lt;br&gt;inserted_by_user is positive&quot;&quot;" style="shape=parallelogram;perimeter=parallelogramPerimeter;whiteSpace=wrap;html=1;fixedSize=1;" vertex="1" parent="1">
                    <mxGeometry x="728" y="460" width="156" height="70" as="geometry"/>
                </mxCell>
            </root>
        </mxGraphModel>
    </diagram>
</mxfile>